<?xml version="1.0" standalone="no"?>
<!DOCTYPE svg PUBLIC "-//W3C//DTD SVG 20010904//EN"
 "http://www.w3.org/TR/2001/REC-SVG-20010904/DTD/svg10.dtd">
<svg version="1.0" xmlns="http://www.w3.org/2000/svg"
 width="300.000000pt" height="300.000000pt" viewBox="0 0 300.000000 300.000000"
 preserveAspectRatio="xMidYMid meet">
<metadata>
Created by potrace 1.10, written by Peter Selinger 2001-2011
</metadata>
<g transform="translate(0.000000,300.000000) scale(0.100000,-0.100000)"
fill="#000000" stroke="none">
<path d="M710 1697 c0 -326 15 -389 117 -498 179 -191 466 -197 650 -13 81 81
133 208 133 326 0 129 130 242 258 224 76 -10 149 -61 183 -127 95 -188 -76
-386 -285 -328 -23 6 -57 29 -86 58 l-48 48 -12 -41 c-25 -87 -103 -189 -187
-248 l-43 -29 0 -144 c0 -144 0 -145 23 -145 38 1 100 35 139 77 43 49 63 126
55 214 l-6 58 32 -19 c79 -45 215 -63 316 -39 197 45 341 226 341 429 0 288
-279 507 -555 435 -112 -30 -200 -90 -259 -180 -49 -73 -65 -121 -82 -242 -16
-121 -41 -169 -111 -213 -117 -75 -269 -32 -336 94 -19 37 -22 61 -27 227 -5
181 -6 187 -32 227 -30 44 -93 86 -145 96 l-33 6 0 -253z m1238 215 c2 -6 9
-9 17 -6 23 9 137 -62 186 -115 48 -52 89 -126 109 -197 11 -38 10 -132 -3
-205 -7 -40 -67 -150 -78 -144 -5 4 -8 1 -7 -7 2 -7 -3 -12 -10 -10 -8 1 -11
-2 -6 -9 5 -9 2 -10 -12 -5 -15 6 -16 5 -7 -5 9 -9 0 -21 -43 -51 -31 -21 -60
-35 -66 -32 -7 4 -8 2 -4 -4 5 -8 -2 -13 -18 -13 -14 -1 -32 -2 -38 -3 -7 -1
-16 -5 -20 -11 -11 -15 -182 -20 -173 -5 5 9 2 10 -13 6 -21 -7 -118 20 -128
35 -3 5 -14 9 -25 9 -17 0 -19 -8 -19 -77 0 -43 -6 -97 -13 -121 -16 -54 -69
-114 -93 -105 -12 4 -15 3 -10 -5 7 -12 -40 -29 -50 -19 -3 3 -6 60 -6 128 0
89 3 124 13 130 7 4 17 5 23 2 5 -3 6 -1 2 5 -3 6 3 13 14 17 11 3 20 11 20
16 0 6 4 8 9 5 5 -3 11 4 14 15 3 12 10 18 16 14 6 -3 11 1 11 10 0 9 4 14 9
11 5 -3 8 2 7 12 0 9 5 16 12 14 6 -1 11 2 10 6 -3 8 32 83 43 92 8 8 22 44
20 53 -1 5 3 6 9 2 5 -3 10 -12 10 -20 0 -7 7 -16 16 -19 8 -3 12 -11 8 -17
-4 -8 -3 -9 5 -5 14 9 53 -2 47 -13 -6 -9 -4 -9 85 -17 61 -6 72 -3 138 27 39
19 71 39 71 46 0 6 4 13 10 15 5 2 22 32 38 67 21 46 27 73 23 90 -4 15 -7 42
-7 63 1 20 -2 34 -7 31 -10 -6 -29 46 -21 59 4 6 2 8 -3 5 -6 -4 -18 2 -28 13
-11 13 -14 20 -6 20 7 0 9 5 5 11 -4 8 -9 7 -15 -2 -6 -10 -11 -11 -16 -3 -18
24 -82 53 -140 61 -34 5 -60 6 -58 3 3 -4 -12 -10 -33 -14 -51 -8 -99 -40
-123 -81 -12 -19 -25 -32 -30 -29 -5 3 -6 -2 -3 -10 3 -9 2 -16 -3 -16 -11 0
-11 1 -22 -110 -10 -95 -37 -194 -51 -185 -6 3 -7 0 -4 -8 6 -17 -23 -50 -37
-42 -5 4 -6 0 -3 -8 3 -8 0 -18 -5 -22 -6 -3 -9 -10 -6 -15 3 -5 -6 -12 -20
-16 -14 -3 -25 -12 -25 -18 0 -12 -52 -56 -66 -56 -4 0 -16 -8 -27 -17 -15
-13 -18 -14 -12 -3 8 13 6 13 -8 1 -9 -7 -26 -11 -37 -8 -11 3 -18 1 -15 -3
15 -25 -141 -39 -205 -18 -14 4 -38 10 -53 13 -17 3 -25 10 -21 17 4 6 3 8 -3
5 -10 -7 -67 19 -97 44 -50 41 -86 80 -86 94 0 8 -4 15 -9 15 -5 0 -22 26 -38
58 l-28 57 -3 268 -2 267 25 0 c14 0 34 -9 45 -20 11 -11 20 -17 20 -12 0 4
16 -10 35 -31 35 -38 44 -54 25 -42 -6 3 -7 -1 -4 -9 3 -9 10 -16 15 -16 4 0
7 -81 6 -179 -1 -99 1 -178 4 -176 3 2 14 -16 24 -41 10 -24 24 -49 32 -56 11
-9 12 -13 1 -21 -9 -6 -8 -7 5 -3 10 3 25 -2 37 -14 27 -27 69 -47 115 -55 22
-3 51 -8 65 -11 19 -4 22 -2 10 6 -12 8 -10 10 11 10 41 0 120 39 148 73 14
17 26 33 27 36 0 3 8 22 16 41 9 19 18 70 21 113 3 43 10 84 17 92 6 8 9 18 6
24 -3 5 -1 11 5 13 6 2 12 16 12 31 1 15 5 27 8 27 3 0 11 12 17 26 7 14 17
22 22 19 5 -3 7 0 4 9 -3 9 2 17 15 21 12 3 19 10 17 14 -6 9 30 41 38 34 3
-4 6 2 6 12 0 10 3 16 6 12 3 -3 18 5 32 19 15 13 36 24 47 25 11 0 40 9 65
20 36 15 62 18 129 16 51 -2 86 -8 89 -15z"/>
<path d="M826 1259 c2 -4 13 -7 24 -6 23 2 17 10 -10 12 -10 1 -17 -2 -14 -6z"/>
<path d="M1545 919 c-4 -6 -5 -12 -2 -15 2 -3 7 2 10 11 7 17 1 20 -8 4z"/>
</g>
</svg>
